<?xml version="1.0" standalone="no"?>
<!DOCTYPE svg PUBLIC "-//W3C//DTD SVG 20010904//EN"
 "http://www.w3.org/TR/2001/REC-SVG-20010904/DTD/svg10.dtd">
<svg version="1.0" xmlns="http://www.w3.org/2000/svg"
 width="677.000000pt" height="482.000000pt" viewBox="0 0 677.000000 482.000000"
 preserveAspectRatio="xMidYMid meet">

<g transform="translate(0.000000,482.000000) scale(0.100000,-0.100000)"
fill="#000000" stroke="none">
<path d="M4136 4577 c-21 -15 -21 -48 4 -502 28 -501 33 -619 61 -1220 27
-617 36 -850 30 -856 -6 -7 -251 -33 -256 -27 -1 2 -26 98 -54 213 -28 116
-60 244 -71 285 -11 41 -27 102 -35 135 -177 718 -192 785 -294 1261 -23 105
-41 194 -41 197 0 4 -11 14 -24 22 -19 13 -29 14 -45 5 -17 -9 -21 -20 -21
-60 0 -48 41 -494 60 -655 5 -44 14 -134 20 -200 6 -66 16 -157 21 -202 5 -45
16 -162 25 -260 8 -98 21 -250 29 -338 7 -88 18 -216 24 -285 6 -69 13 -140
16 -158 3 -28 0 -34 -22 -43 -16 -6 -30 -6 -36 0 -11 11 -33 113 -92 436 -24
132 -53 290 -65 350 -12 61 -27 148 -35 195 -7 47 -31 200 -54 340 -23 140
-46 284 -52 320 -23 142 -52 267 -71 301 -43 78 -112 69 -142 -18 -44 -125
-48 -222 -52 -1183 -2 -503 -7 -916 -12 -918 -4 -1 -18 55 -31 125 -13 71 -30
162 -37 203 -8 41 -21 125 -28 185 -8 61 -19 130 -24 155 -6 25 -17 108 -27
185 -9 77 -27 212 -41 300 -14 88 -27 178 -30 200 -2 22 -11 83 -19 135 -45
293 -66 438 -80 547 -16 132 -32 177 -66 186 -29 8 -65 -7 -83 -35 -23 -36
-54 -183 -66 -308 -28 -307 -41 -509 -47 -770 -3 -157 -8 -280 -10 -274 -2 5
-14 73 -28 150 -76 438 -183 974 -220 1100 -21 72 -48 104 -90 104 -43 0 -51
-12 -75 -106 -30 -117 -40 -354 -47 -1154 l-6 -705 -23 105 c-175 795 -296
1299 -454 1893 -49 184 -78 239 -142 273 -36 19 -62 18 -106 -5 -64 -33 -140
-132 -187 -241 -10 -25 -22 -49 -26 -53 -3 -5 -23 34 -43 86 -46 119 -196 410
-235 457 -41 49 -56 33 -42 -45 9 -47 102 -253 132 -290 4 -6 40 -82 79 -169
l71 -159 -30 -136 c-17 -75 -40 -192 -52 -260 -11 -69 -22 -127 -24 -131 -6
-10 -64 -422 -75 -535 -36 -366 -39 -790 -10 -1175 17 -225 60 -578 76 -620 3
-8 14 -60 24 -115 26 -134 71 -294 108 -380 68 -162 128 -238 198 -251 31 -6
40 -2 71 27 78 74 122 237 165 604 7 63 13 223 12 375 0 237 -4 301 -37 610
-21 190 -40 352 -42 360 -3 8 -14 96 -25 195 -11 99 -22 187 -25 195 -2 8 -18
123 -35 255 -49 383 -82 541 -173 817 l-41 127 28 88 c52 162 135 295 194 310
51 13 75 -44 163 -385 65 -251 122 -485 158 -642 12 -52 31 -133 41 -180 54
-235 91 -396 115 -505 14 -66 33 -149 41 -184 8 -36 37 -169 63 -295 44 -208
63 -306 136 -685 l21 -113 -57 -47 c-75 -60 -75 -74 0 -21 48 34 63 40 86 34
31 -8 58 16 49 41 -7 17 14 31 200 133 319 174 664 332 677 310 15 -24 40
-196 64 -428 18 -178 20 -187 39 -171 10 9 12 73 8 333 l-4 323 123 42 c180
62 349 105 354 90 18 -59 119 -582 174 -902 14 -87 19 -100 36 -100 27 0 30
45 16 200 -6 66 -17 206 -25 310 -33 419 -37 471 -43 505 l-5 36 119 21 c65
12 135 24 155 27 42 5 35 18 73 -134 9 -36 24 -87 34 -115 11 -27 26 -88 36
-133 9 -46 25 -109 36 -140 11 -32 26 -85 34 -119 24 -101 96 -312 112 -329
14 -14 17 -14 32 1 23 23 30 269 20 680 -5 181 -7 330 -5 332 8 8 181 23 376
33 290 15 526 2 813 -45 298 -48 333 -57 434 -114 208 -118 403 -173 403 -113
0 25 -119 81 -324 153 -127 44 -187 80 -248 148 -60 66 -82 134 -75 222 16
192 211 386 406 403 87 8 126 23 126 51 0 18 -8 20 -140 21 -125 1 -152 5
-249 33 -170 49 -325 129 -437 223 -145 122 -192 283 -134 465 36 113 134 273
168 273 4 0 29 14 55 32 112 76 239 225 214 250 -9 9 -19 8 -38 -3 -35 -18
-264 -218 -264 -230 0 -14 -48 -34 -140 -60 -67 -18 -110 -23 -205 -23 -194 0
-313 43 -452 166 -177 157 -287 350 -344 601 -22 99 -43 157 -58 157 -5 0 -15
2 -23 5 -7 3 -22 -1 -32 -8z m185 -553 c84 -137 253 -296 376 -354 134 -64
299 -89 438 -65 50 8 94 15 98 15 5 0 -14 -21 -41 -47 -235 -224 -590 -690
-691 -907 -28 -61 -22 -70 9 -13 91 166 310 475 459 646 137 157 186 208 227
234 55 34 58 34 40 -1 -27 -52 -58 -157 -67 -222 -10 -79 10 -189 48 -264 71
-141 334 -311 588 -382 l59 -17 -69 -27 c-78 -31 -133 -44 -510 -126 -242 -52
-431 -101 -422 -110 2 -3 69 11 148 30 274 66 365 86 479 106 63 11 151 26
195 35 44 8 97 14 118 15 l38 0 -44 -37 c-94 -80 -159 -192 -177 -304 -9 -58
-7 -75 10 -131 11 -36 36 -86 56 -112 20 -26 34 -49 32 -51 -1 -1 -70 10 -153
26 -316 59 -356 62 -720 63 -214 0 -377 -4 -439 -12 -54 -7 -100 -11 -101 -10
-2 2 -8 215 -14 473 -18 727 -35 1108 -61 1380 -6 55 -13 172 -16 260 l-6 160
45 -107 c24 -58 55 -123 68 -144z m1278 -150 c-13 -14 -37 -35 -54 -47 -21
-14 -15 -4 19 31 28 28 52 49 55 47 2 -3 -6 -17 -20 -31z m-3034 -36 c3 -18
14 -100 25 -183 23 -177 45 -335 65 -460 8 -49 17 -115 20 -145 4 -30 17 -120
30 -200 13 -80 27 -174 30 -210 7 -67 33 -219 59 -350 110 -549 116 -588 102
-599 -6 -5 -60 -30 -121 -56 -241 -104 -448 -219 -641 -356 -47 -34 -88 -58
-91 -55 -7 7 -38 271 -53 450 -19 231 -32 912 -26 1411 5 493 12 609 42 713
23 80 41 69 73 -48 32 -114 67 -272 91 -405 12 -66 26 -137 31 -158 6 -21 23
-111 39 -200 16 -89 42 -241 60 -337 57 -322 90 -575 90 -683 0 -57 15 -82 39
-68 11 7 12 67 10 307 -9 744 5 1192 46 1449 16 97 51 215 65 215 5 0 12 -15
15 -32z m583 -153 c11 -49 26 -124 32 -165 7 -41 18 -106 26 -145 14 -73 66
-354 89 -485 8 -41 36 -188 64 -325 27 -138 59 -302 70 -365 11 -63 30 -160
41 -214 11 -56 17 -103 12 -108 -5 -5 -67 -24 -138 -43 -71 -18 -166 -47 -212
-64 -45 -17 -88 -31 -95 -31 -15 0 -13 938 3 1510 10 351 21 472 50 545 l12
30 13 -25 c7 -14 22 -65 33 -115z m422 -260 c55 -225 113 -452 135 -525 8 -25
28 -99 45 -165 17 -66 43 -163 56 -215 114 -430 143 -550 134 -555 -5 -3 -61
-14 -127 -25 -65 -11 -126 -23 -135 -26 -21 -6 -23 3 -49 361 -35 482 -47 627
-58 720 -5 50 -15 144 -21 210 -7 66 -18 167 -25 225 -8 58 -16 141 -19 185
-7 98 -4 89 64 -190z m-2572 148 c16 -41 58 -188 76 -268 41 -181 73 -389 141
-940 13 -104 28 -221 34 -260 6 -38 23 -191 38 -340 46 -460 36 -929 -28
-1264 -35 -186 -72 -271 -118 -271 -58 0 -157 210 -210 445 -78 351 -114 649
-141 1162 -10 184 -3 478 15 643 3 25 10 95 16 155 11 112 86 623 93 634 4 6
56 312 56 326 0 16 19 1 28 -22z m3246 -1699 c25 -216 47 -904 29 -904 -17 0
-119 320 -191 595 -11 44 -36 137 -55 208 l-35 127 21 5 c29 7 154 22 193 24
31 1 31 0 38 -55z m-650 -77 c9 -37 47 -469 42 -474 -6 -6 -6 -3 -36 157 -11
63 -31 163 -44 222 -12 59 -21 110 -18 113 3 3 15 5 28 5 15 0 24 -8 28 -23z
m2556 -34 c50 -20 88 -38 86 -40 -4 -5 -154 52 -176 67 -28 18 1 10 90 -27z
m-3170 -160 c0 -28 -3 -34 -10 -23 -13 20 -13 60 0 60 6 0 10 -17 10 -37z"/>
<path d="M4645 2310 c-22 -11 -29 -17 -15 -14 29 8 80 33 65 33 -5 0 -28 -8
-50 -19z"/>
</g>
</svg>
